<svg xmlns="http://www.w3.org/2000/svg" style="display:none">
  <symbol id="icon-check" viewBox="0 0 24 24"><path fill="currentColor" d="M9.2 16.6 4.6 12l1.4-1.4 3.2 3.2 8.8-8.8L19.4 6z"/></symbol>
  <symbol id="icon-warning" viewBox="0 0 24 24"><path fill="currentColor" d="M12 3 1 21h22L12 3zm1 13h-2v-5h2v5zm0 3h-2v-2h2v2z"/></symbol>
  <symbol id="icon-git" viewBox="0 0 24 24"><path fill="currentColor" d="m21.7 11.3-9-9a1 1 0 0 0-1.4 0l-2 2 2.5 2.5a2 2 0 0 1 2.4 2.4l2.4 2.4a2 2 0 1 1-1.2 1.2L13 10.4v6.2a2 2 0 1 1-2 0V10a2 2 0 0 1-.8-1.6L7.8 6l-5.5 5.3a1 1 0 0 0 0 1.4l9 9a1 1 0 0 0 1.4 0l9-9a1 1 0 0 0 0-1.4z"/></symbol>
  <symbol id="icon-evidence" viewBox="0 0 24 24"><path fill="currentColor" d="M5 3h10l4 4v14H5V3zm9 1.5V8h3.5L14 4.5zM8 12h8v-2H8v2zm0 4h8v-2H8v2zm0 4h5v-2H8v2z"/></symbol>
  <symbol id="icon-clock" viewBox="0 0 24 24"><path fill="currentColor" d="M12 2a10 10 0 1 0 0 20 10 10 0 0 0 0-20zm1 11h5v-2h-4V6h-2v7h1z"/></symbol>
</svg>
